<?xml version="1.0" standalone="no"?>
<!DOCTYPE svg PUBLIC "-//W3C//DTD SVG 20010904//EN"
 "http://www.w3.org/TR/2001/REC-SVG-20010904/DTD/svg10.dtd">
<svg version="1.0" xmlns="http://www.w3.org/2000/svg"
 width="182.000000pt" height="300.000000pt" viewBox="0 0 182.000000 300.000000"
 preserveAspectRatio="xMidYMid meet">
<metadata>
Created by potrace 1.10, written by Peter Selinger 2001-2011
</metadata>
<g transform="translate(0.000000,300.000000) scale(0.100000,-0.100000)"
fill="#000000" stroke="none">
<path d="M1240 2789 c-223 -103 -486 -225 -585 -269 -211 -96 -296 -143 -387
-217 -183 -148 -263 -362 -226 -603 23 -156 142 -436 195 -463 16 -8 93 -26
173 -41 80 -15 167 -31 193 -36 26 -6 57 -10 69 -10 20 0 20 1 3 20 -10 11
-21 17 -25 15 -5 -3 -20 -1 -34 5 -17 6 -26 6 -26 0 0 -6 -16 -10 -35 -10 -19
0 -35 5 -35 11 0 5 -5 7 -11 4 -17 -11 -69 16 -69 36 0 10 -4 20 -9 24 -6 3
-6 -7 -1 -26 9 -29 8 -31 -13 -26 -12 3 -39 9 -60 12 -20 4 -37 11 -37 16 0 5
-12 6 -27 3 -24 -6 -26 -5 -15 8 10 12 10 18 -2 27 -12 10 -13 8 -9 -10 5 -18
3 -21 -11 -16 -10 4 -20 7 -22 7 -2 0 -4 6 -4 14 0 7 -7 19 -15 26 -8 7 -15
18 -14 24 0 7 2 6 6 -1 8 -22 19 -14 21 15 1 20 -1 23 -8 12 -8 -13 -11 -12
-24 5 -14 18 -18 30 -15 38 1 1 -11 24 -25 51 -14 27 -26 55 -26 62 0 8 -6 14
-12 14 -9 0 -8 4 2 10 13 9 13 10 -1 10 -12 0 -15 8 -12 33 4 25 2 29 -7 17
-9 -13 -10 -12 -6 5 3 11 -1 38 -8 60 -8 22 -10 42 -6 45 5 3 6 17 3 32 -3 15
-9 25 -13 23 -5 -3 -7 6 -6 20 2 14 0 45 -4 68 -7 45 10 103 25 90 5 -5 4 -1
-3 9 -11 13 -10 23 2 53 9 21 13 42 9 48 -3 6 -1 7 6 3 7 -5 13 3 17 23 4 17
11 31 16 31 5 0 6 5 3 10 -3 6 -2 10 4 10 5 0 13 9 16 20 8 25 138 154 198
197 24 17 66 42 93 54 27 12 56 29 65 36 9 8 29 16 45 19 16 3 31 9 34 13 4 6
84 47 110 56 24 8 76 32 134 61 38 19 76 34 85 35 9 0 30 9 46 20 17 10 46 26
65 34 19 9 43 20 52 25 10 6 25 10 33 10 9 0 18 7 21 15 4 9 11 14 18 13 6 -1
46 15 89 35 43 21 82 35 87 32 4 -3 10 1 13 8 3 7 23 19 46 27 23 7 46 19 52
27 6 7 18 13 26 13 8 0 48 16 91 36 76 36 76 36 93 15 9 -11 19 -17 23 -14 3
4 6 -1 6 -11 0 -9 7 -28 16 -42 9 -13 18 -32 19 -42 1 -9 4 -24 7 -32 36 -94
52 -255 34 -337 -12 -56 -77 -166 -122 -210 -24 -23 -44 -47 -44 -53 0 -5 -3
-9 -7 -9 -18 3 -36 -1 -30 -7 12 -13 -107 -98 -180 -130 -24 -10 -43 -21 -43
-25 0 -4 -14 -10 -31 -14 -17 -4 -33 -13 -36 -21 -3 -8 -9 -11 -14 -8 -5 3
-14 0 -21 -5 -50 -42 -78 -71 -78 -82 0 -8 6 -7 18 4 10 10 21 17 24 17 11 0
262 142 322 182 138 93 247 234 275 358 17 71 13 188 -9 275 -21 80 -106 267
-125 271 -5 1 -192 -83 -415 -187z"/>
<path d="M1175 1850 c3 -5 1 -10 -4 -10 -6 0 -11 -4 -11 -10 0 -5 7 -10 15
-10 18 0 18 -4 4 -33 -10 -21 -10 -21 5 -3 9 11 16 24 16 29 0 4 6 5 13 1 8
-5 8 -2 -2 9 -8 10 -9 17 -3 17 6 0 14 -5 17 -10 4 -6 16 -8 27 -4 13 4 18 2
14 -4 -6 -10 11 -19 53 -27 15 -3 19 1 14 13 -3 10 3 7 16 -8 l21 -25 18 23
18 23 23 -20 c12 -11 20 -25 16 -30 -3 -6 -4 -11 0 -11 3 0 10 10 15 23 6 15
9 17 9 5 1 -11 7 -15 21 -11 14 4 27 -2 40 -17 11 -13 20 -18 20 -12 0 7 7 12
15 12 8 0 15 -4 15 -10 0 -5 8 -10 18 -10 13 -1 12 -4 -7 -14 -15 -8 -20 -16
-12 -20 6 -4 11 -2 11 4 0 6 5 8 10 5 6 -4 8 -11 5 -16 -4 -5 -1 -9 4 -9 19 0
12 -16 -11 -29 l-23 -11 22 6 c19 4 22 2 16 -13 -9 -27 -24 -43 -34 -37 -5 2
-11 -7 -15 -21 -6 -24 -7 -24 -19 -8 -13 17 -13 17 -12 -1 1 -11 -7 -25 -18
-31 -11 -6 -21 -16 -23 -23 -2 -10 2 -10 18 -2 11 6 20 15 20 20 0 6 8 10 19
10 10 0 38 22 63 50 46 51 58 54 58 14 0 -13 4 -25 9 -28 5 -3 12 -18 15 -32
4 -14 15 -45 26 -68 10 -22 19 -49 19 -58 2 -40 5 -48 16 -48 7 0 10 -9 8 -24
-3 -13 2 -37 10 -53 12 -21 13 -39 7 -66 -5 -22 -4 -37 2 -37 5 0 6 -22 3 -52
-3 -29 -6 -59 -7 -65 -1 -7 -5 -13 -10 -13 -4 0 -8 -11 -8 -25 0 -15 -7 -39
-15 -55 -9 -17 -13 -30 -10 -30 4 0 -3 -13 -14 -29 -12 -16 -21 -34 -21 -40 0
-6 -9 -20 -20 -31 -11 -11 -18 -20 -15 -20 13 0 -145 -149 -175 -166 -19 -10
-43 -28 -52 -38 -10 -10 -18 -15 -18 -10 0 5 -4 5 -8 -1 -13 -18 -53 -36 -64
-29 -6 4 -8 3 -4 -4 7 -12 -58 -37 -74 -27 -5 3 -10 1 -10 -4 0 -6 -6 -11 -14
-11 -8 0 -22 -7 -30 -16 -9 -8 -20 -12 -26 -9 -5 3 -10 2 -10 -3 0 -5 -28 -21
-62 -36 -35 -16 -71 -35 -80 -43 -10 -9 -24 -13 -33 -9 -9 3 -20 -2 -27 -13
-6 -11 -18 -17 -25 -14 -8 3 -21 -2 -31 -10 -9 -9 -30 -18 -46 -21 -16 -3 -33
-11 -37 -17 -4 -6 -12 -8 -19 -4 -8 5 -11 4 -7 -2 4 -6 -4 -10 -18 -10 -14 0
-28 3 -31 8 -3 5 -11 9 -17 9 -8 0 -7 -3 2 -9 7 -5 10 -14 7 -20 -4 -6 -12 -9
-17 -6 -5 4 -9 2 -9 -3 0 -7 -36 -30 -60 -37 -23 -7 -46 -20 -53 -29 -5 -8
-11 -6 -18 4 -9 13 -10 13 -5 -2 3 -11 -2 -19 -17 -24 -11 -4 -27 -13 -35 -21
-10 -10 -18 -11 -27 -3 -10 8 -17 6 -27 -7 -16 -22 -118 -75 -118 -61 0 5 -7
3 -15 -5 -8 -8 -39 -23 -70 -32 -30 -10 -55 -22 -55 -26 0 -5 -9 -9 -19 -9
-12 0 -26 15 -40 45 -12 25 -21 49 -21 54 0 5 -5 11 -11 13 -5 2 -11 11 -13
20 -1 10 -5 21 -9 24 -4 4 -7 20 -7 36 0 16 -4 27 -9 24 -4 -3 -9 7 -9 22 -2
37 -19 141 -21 123 0 -8 -4 -11 -7 -8 -4 4 -1 13 5 21 9 11 9 16 0 22 -9 5 -7
10 5 20 9 6 13 15 8 18 -5 3 -7 19 -4 35 2 17 8 29 12 26 4 -2 5 6 3 18 -2 12
10 49 27 82 16 33 30 56 30 51 0 -5 9 1 20 14 11 13 20 29 20 37 0 8 4 12 9 8
5 -3 12 4 16 14 3 11 15 23 26 26 10 4 19 12 19 18 0 12 40 43 51 40 4 -1 15
7 24 17 10 11 24 20 32 20 7 0 13 5 13 10 0 6 4 10 10 10 5 0 30 16 56 35 25
19 53 35 61 35 9 0 38 16 64 35 27 19 54 35 60 35 5 0 24 13 42 30 19 17 34
25 38 19 4 -6 16 1 29 18 12 15 25 28 28 28 11 1 112 58 109 62 -3 3 -123 -53
-167 -77 -8 -5 -86 -48 -173 -97 -87 -48 -197 -117 -244 -152 -267 -201 -318
-458 -156 -788 26 -51 51 -92 57 -89 112 49 1141 527 1191 553 155 80 261 169
334 282 132 204 119 480 -37 798 -26 53 -59 105 -74 116 -18 13 -82 30 -210
53 -194 36 -233 40 -223 24z"/>
<path d="M1030 1795 c0 -14 5 -25 11 -25 6 0 8 9 4 23 -5 17 -4 19 4 7 9 -13
11 -13 11 3 0 9 -7 17 -15 17 -9 0 -15 -9 -15 -25z"/>
<path d="M900 1735 c12 -14 7 -20 -14 -16 -5 1 -4 -4 2 -12 7 -8 11 -16 9 -18
-1 -3 6 3 15 14 19 20 14 47 -9 47 -13 0 -13 -3 -3 -15z"/>
<path d="M1156 1724 c-11 -10 -13 -20 -8 -28 5 -6 12 -18 16 -26 3 -8 4 -3 1
12 -7 37 11 45 23 11 8 -22 11 -23 11 -8 0 11 -6 28 -13 38 -13 17 -15 17 -30
1z"/>
<path d="M1351 1643 c-1 -23 4 -45 10 -49 8 -4 9 1 4 16 -5 15 -3 20 3 16 6
-3 13 -2 17 4 3 5 1 10 -5 10 -6 0 -15 10 -20 23 -7 18 -9 15 -9 -20z"/>
<path d="M1368 1463 c-10 -2 -18 -9 -18 -14 0 -6 -4 -8 -8 -5 -4 2 -18 -3 -31
-13 -17 -13 -19 -18 -7 -18 9 0 16 5 16 10 0 5 9 7 20 4 12 -3 20 0 20 7 0 7
10 18 23 24 23 11 16 13 -15 5z"/>
<path d="M650 1385 c-8 -10 -6 -15 9 -20 12 -3 21 -10 21 -14 0 -5 11 -6 25
-3 14 2 22 9 19 14 -4 5 -15 8 -25 5 -21 -6 -27 9 -7 15 7 3 3 7 -9 10 -13 3
-27 0 -33 -7z"/>
<path d="M1170 1388 c11 -13 -5 -38 -24 -38 -7 0 -20 -6 -30 -13 -17 -12 -17
-14 1 -28 16 -13 17 -12 5 3 -11 14 -8 18 25 29 21 7 40 13 43 12 3 -1 11 5
18 13 11 12 10 14 -6 14 -10 0 -23 5 -30 10 -9 7 -9 7 -2 -2z"/>
<path d="M624 1343 c-7 -2 -10 -13 -7 -23 6 -23 12 -24 33 -9 12 9 12 10 -4 5
-15 -5 -17 -4 -7 8 13 15 4 26 -15 19z"/>
<path d="M980 1301 c0 -6 7 -7 17 -4 11 4 14 3 9 -5 -4 -7 -16 -12 -27 -12
-10 0 -19 -4 -19 -10 0 -13 3 -13 35 2 14 6 24 16 22 22 -5 14 -37 20 -37 7z"/>
</g>
</svg>
